<svg xmlns="http://www.w3.org/2000/svg" xmlns:xlink="http://www.w3.org/1999/xlink" width="1080" zoomAndPan="magnify" viewBox="0 0 810 809.999993" height="1080" preserveAspectRatio="xMidYMid meet" version="1.0"><path fill="#1f2a55" d="M 405 648 C 270.792969 648 162 539.207031 162 405 C 162 270.792969 270.792969 162 405 162 C 539.207031 162 648 270.792969 648 405 C 648 539.207031 539.207031 648 405 648 Z M 522.125 528.347656 C 524.675781 525.917969 527.152344 523.414062 529.546875 520.832031 C 531.941406 518.25 534.257812 515.597656 536.488281 512.871094 C 538.71875 510.148438 540.863281 507.355469 542.921875 504.496094 C 544.980469 501.640625 546.945312 498.71875 548.824219 495.738281 C 550.699219 492.757812 552.480469 489.722656 554.167969 486.632812 C 555.855469 483.539062 557.445312 480.398438 558.941406 477.210938 C 560.433594 474.019531 561.824219 470.785156 563.117188 467.507812 C 564.40625 464.234375 565.597656 460.917969 566.683594 457.570312 C 567.769531 454.21875 568.75 450.835938 569.625 447.425781 C 570.503906 444.015625 571.273438 440.578125 571.933594 437.121094 C 572.597656 433.660156 573.152344 430.183594 573.597656 426.691406 C 574.042969 423.199219 574.382812 419.695312 574.613281 416.179688 C 574.839844 412.664062 574.960938 409.144531 574.972656 405.625 C 574.980469 402.101562 574.882812 398.582031 574.675781 395.066406 C 574.464844 391.550781 574.148438 388.046875 573.722656 384.550781 C 573.296875 381.054688 572.765625 377.574219 572.121094 374.109375 C 571.480469 370.648438 570.730469 367.207031 569.875 363.789062 C 569.019531 360.375 568.058594 356.988281 566.992188 353.632812 C 565.925781 350.273438 564.757812 346.953125 563.484375 343.667969 C 562.210938 340.386719 560.839844 337.144531 559.367188 333.945312 C 557.890625 330.746094 556.320312 327.597656 554.652344 324.496094 C 552.980469 321.394531 551.21875 318.347656 549.359375 315.355469 C 547.5 312.363281 545.550781 309.433594 543.511719 306.5625 C 541.46875 303.691406 539.34375 300.886719 537.128906 298.148438 C 534.914062 295.410156 532.613281 292.742188 530.234375 290.148438 C 527.851562 287.550781 525.394531 285.03125 522.859375 282.589844 C 520.320312 280.144531 517.710938 277.785156 515.027344 275.503906 C 512.34375 273.222656 509.589844 271.027344 506.769531 268.917969 C 503.949219 266.808594 501.066406 264.785156 498.121094 262.855469 C 495.175781 260.925781 492.171875 259.085938 489.113281 257.34375 C 486.054688 255.597656 482.941406 253.953125 479.78125 252.398438 C 476.617188 250.847656 473.410156 249.398438 470.160156 248.046875 C 466.90625 246.695312 463.617188 245.445312 460.285156 244.296875 C 456.957031 243.148438 453.59375 242.105469 450.199219 241.167969 C 446.804688 240.230469 443.382812 239.398438 439.9375 238.671875 C 436.492188 237.945312 433.027344 237.328125 429.539062 236.816406 C 426.054688 236.304688 422.558594 235.902344 419.050781 235.609375 C 415.539062 235.316406 412.023438 235.132812 408.503906 235.054688 C 404.980469 234.980469 401.460938 235.015625 397.941406 235.160156 C 394.421875 235.300781 390.910156 235.554688 387.410156 235.917969 C 383.90625 236.277344 380.414062 236.746094 376.941406 237.328125 C 373.46875 237.90625 370.015625 238.589844 366.582031 239.382812 C 363.152344 240.175781 359.746094 241.074219 356.371094 242.078125 C 352.996094 243.082031 349.65625 244.191406 346.347656 245.402344 C 343.039062 246.613281 339.773438 247.925781 336.550781 249.34375 C 333.324219 250.757812 330.144531 252.269531 327.011719 253.882812 C 323.882812 255.496094 320.804688 257.203125 317.777344 259.003906 C 314.753906 260.808594 311.785156 262.703125 308.878906 264.691406 C 305.972656 266.679688 303.128906 268.753906 300.347656 270.917969 C 297.570312 273.082031 294.863281 275.332031 292.222656 277.664062 C 289.585938 279.996094 287.019531 282.410156 284.53125 284.902344 C 282.042969 287.394531 279.632812 289.960938 277.300781 292.601562 C 274.972656 295.242188 272.726562 297.953125 270.566406 300.734375 C 268.40625 303.515625 266.332031 306.359375 264.347656 309.269531 C 262.363281 312.179688 260.46875 315.148438 258.667969 318.175781 C 256.871094 321.203125 255.164062 324.28125 253.554688 327.414062 C 251.945312 330.550781 250.4375 333.730469 249.027344 336.957031 C 247.613281 340.183594 246.304688 343.449219 245.097656 346.757812 C 243.886719 350.066406 242.785156 353.410156 241.78125 356.785156 C 240.78125 360.164062 239.886719 363.566406 239.097656 367 C 238.308594 370.433594 237.625 373.886719 237.050781 377.359375 C 236.476562 380.835938 236.011719 384.324219 235.652344 387.828125 C 235.292969 391.332031 235.046875 394.84375 234.90625 398.363281 C 234.765625 401.882812 234.734375 405.402344 234.8125 408.925781 C 234.894531 412.445312 235.082031 415.960938 235.378906 419.46875 C 235.675781 422.980469 236.082031 426.476562 236.597656 429.960938 C 237.109375 433.445312 237.730469 436.910156 238.460938 440.355469 C 239.191406 443.800781 240.027344 447.222656 240.96875 450.613281 C 241.910156 454.007812 242.957031 457.371094 244.109375 460.699219 C 245.257812 464.027344 246.511719 467.316406 247.867188 470.566406 C 249.222656 473.820312 250.675781 477.023438 252.230469 480.183594 C 253.785156 483.34375 255.4375 486.453125 257.183594 489.511719 C 258.933594 492.570312 260.773438 495.570312 262.707031 498.515625 C 264.640625 501.457031 266.664062 504.339844 268.777344 507.15625 C 270.890625 509.976562 273.085938 512.726562 275.371094 515.40625 C 277.65625 518.085938 280.019531 520.695312 282.464844 523.230469 C 284.910156 525.765625 287.433594 528.222656 290.03125 530.597656 C 292.628906 532.976562 295.296875 535.273438 298.039062 537.484375 C 300.78125 539.695312 303.585938 541.820312 306.460938 543.859375 C 309.332031 545.894531 312.265625 547.84375 315.257812 549.699219 C 318.253906 551.554688 321.300781 553.3125 324.402344 554.980469 C 327.507812 556.648438 330.660156 558.214844 333.859375 559.683594 C 337.058594 561.15625 340.300781 562.523438 343.585938 563.792969 C 346.875 565.0625 350.195312 566.230469 353.554688 567.292969 C 356.910156 568.355469 360.296875 569.3125 363.714844 570.164062 C 367.132812 571.015625 370.574219 571.761719 374.039062 572.398438 C 377.5 573.039062 380.980469 573.570312 384.476562 573.992188 C 387.972656 574.414062 391.480469 574.726562 394.996094 574.929688 C 398.511719 575.136719 402.03125 575.230469 405.554688 575.214844 C 409.074219 575.203125 412.59375 575.078125 416.109375 574.847656 C 419.621094 574.613281 423.125 574.273438 426.621094 573.820312 C 430.113281 573.371094 433.589844 572.8125 437.046875 572.148438 C 440.503906 571.480469 443.941406 570.707031 447.351562 569.828125 C 450.761719 568.949219 454.140625 567.964844 457.488281 566.875 C 460.839844 565.785156 464.152344 564.59375 467.425781 563.296875 C 470.703125 562.003906 473.933594 560.605469 477.121094 559.109375 L 453.429688 516.464844 C 451.449219 517.324219 449.445312 518.132812 447.417969 518.886719 C 445.394531 519.644531 443.347656 520.34375 441.285156 520.988281 C 439.222656 521.632812 437.144531 522.222656 435.050781 522.757812 C 432.957031 523.292969 430.847656 523.773438 428.730469 524.195312 C 426.609375 524.617188 424.480469 524.980469 422.339844 525.289062 C 420.203125 525.597656 418.054688 525.847656 415.902344 526.042969 C 413.75 526.238281 411.59375 526.375 409.433594 526.453125 C 407.273438 526.53125 405.113281 526.550781 402.953125 526.515625 C 400.792969 526.480469 398.632812 526.386719 396.476562 526.234375 C 394.320312 526.082031 392.171875 525.875 390.023438 525.605469 C 387.878906 525.339844 385.742188 525.015625 383.617188 524.636719 C 381.488281 524.257812 379.371094 523.820312 377.269531 523.328125 C 375.164062 522.832031 373.074219 522.285156 371 521.679688 C 368.925781 521.074219 366.867188 520.414062 364.828125 519.699219 C 362.789062 518.984375 360.769531 518.214844 358.769531 517.394531 C 356.769531 516.570312 354.792969 515.695312 352.84375 514.769531 C 350.890625 513.839844 348.964844 512.863281 347.066406 511.832031 C 345.164062 510.800781 343.292969 509.71875 341.453125 508.589844 C 339.609375 507.460938 337.796875 506.28125 336.019531 505.054688 C 334.238281 503.824219 332.496094 502.550781 330.785156 501.230469 C 329.070312 499.910156 327.398438 498.546875 325.757812 497.136719 C 324.121094 495.726562 322.519531 494.273438 320.960938 492.78125 C 319.398438 491.285156 317.878906 489.75 316.398438 488.171875 C 314.921875 486.597656 313.484375 484.984375 312.09375 483.332031 C 310.699219 481.675781 309.351562 479.988281 308.046875 478.265625 C 306.746094 476.539062 305.488281 474.78125 304.28125 472.988281 C 303.074219 471.199219 301.914062 469.375 300.800781 467.519531 C 299.6875 465.667969 298.628906 463.785156 297.617188 461.875 C 296.605469 459.964844 295.644531 458.027344 294.738281 456.066406 C 293.828125 454.105469 292.976562 452.121094 292.171875 450.113281 C 291.371094 448.109375 290.625 446.082031 289.929688 444.035156 C 289.234375 441.988281 288.597656 439.921875 288.011719 437.839844 C 287.429688 435.761719 286.902344 433.664062 286.429688 431.554688 C 285.957031 429.445312 285.542969 427.328125 285.183594 425.195312 C 284.824219 423.0625 284.523438 420.925781 284.28125 418.777344 C 284.035156 416.628906 283.847656 414.476562 283.71875 412.320312 C 283.589844 410.160156 283.515625 408 283.503906 405.839844 C 283.488281 403.679688 283.53125 401.519531 283.632812 399.359375 C 283.734375 397.199219 283.890625 395.046875 284.109375 392.894531 C 284.324219 390.746094 284.597656 388.601562 284.925781 386.464844 C 285.257812 384.328125 285.644531 382.203125 286.089844 380.089844 C 286.53125 377.972656 287.03125 375.871094 287.585938 373.78125 C 288.144531 371.695312 288.753906 369.621094 289.421875 367.566406 C 290.089844 365.507812 290.808594 363.472656 291.585938 361.453125 C 292.359375 359.4375 293.1875 357.441406 294.070312 355.46875 C 294.953125 353.496094 295.886719 351.546875 296.871094 349.621094 C 297.855469 347.699219 298.894531 345.804688 299.980469 343.933594 C 301.066406 342.066406 302.203125 340.230469 303.386719 338.421875 C 304.574219 336.613281 305.804688 334.839844 307.085938 333.097656 C 308.363281 331.355469 309.6875 329.648438 311.058594 327.976562 C 312.429688 326.308594 313.84375 324.671875 315.304688 323.078125 C 316.761719 321.480469 318.261719 319.925781 319.800781 318.410156 C 321.34375 316.894531 322.921875 315.421875 324.542969 313.992188 C 326.160156 312.558594 327.820312 311.171875 329.511719 309.828125 C 331.207031 308.488281 332.933594 307.191406 334.695312 305.9375 C 336.460938 304.6875 338.253906 303.484375 340.082031 302.332031 C 341.910156 301.175781 343.765625 300.070312 345.652344 299.015625 C 347.539062 297.960938 349.449219 296.953125 351.390625 296 C 353.328125 295.046875 355.292969 294.144531 357.28125 293.296875 C 359.269531 292.449219 361.277344 291.652344 363.308594 290.910156 C 365.335938 290.167969 367.386719 289.480469 369.453125 288.851562 C 371.519531 288.21875 373.601562 287.640625 375.699219 287.121094 C 377.796875 286.597656 379.90625 286.132812 382.03125 285.726562 C 384.152344 285.316406 386.285156 284.964844 388.425781 284.667969 C 390.566406 284.375 392.714844 284.136719 394.867188 283.957031 C 397.023438 283.777344 399.179688 283.652344 401.339844 283.589844 C 403.5 283.523438 405.660156 283.515625 407.820312 283.566406 C 409.980469 283.617188 412.140625 283.722656 414.292969 283.890625 C 416.449219 284.054688 418.597656 284.277344 420.742188 284.558594 C 422.886719 284.835938 425.019531 285.175781 427.144531 285.570312 C 429.269531 285.960938 431.382812 286.414062 433.484375 286.917969 C 435.585938 287.425781 437.671875 287.988281 439.742188 288.605469 C 441.8125 289.226562 443.867188 289.898438 445.902344 290.625 C 447.9375 291.351562 449.953125 292.132812 451.945312 292.96875 C 453.9375 293.804688 455.910156 294.691406 457.855469 295.632812 C 459.800781 296.574219 461.722656 297.5625 463.613281 298.605469 C 465.507812 299.648438 467.371094 300.742188 469.207031 301.882812 C 471.042969 303.027344 472.84375 304.214844 474.617188 305.453125 C 476.386719 306.695312 478.125 307.976562 479.828125 309.308594 C 481.53125 310.640625 483.195312 312.015625 484.824219 313.4375 C 486.457031 314.855469 488.046875 316.320312 489.597656 317.824219 C 491.148438 319.328125 492.660156 320.875 494.128906 322.460938 C 495.597656 324.042969 497.023438 325.667969 498.40625 327.328125 C 499.785156 328.992188 501.125 330.6875 502.414062 332.421875 C 503.707031 334.15625 504.953125 335.921875 506.148438 337.71875 C 507.347656 339.519531 508.496094 341.351562 509.59375 343.210938 C 510.695312 345.070312 511.746094 346.960938 512.742188 348.875 C 513.742188 350.792969 514.691406 352.734375 515.585938 354.703125 C 516.480469 356.667969 517.324219 358.660156 518.113281 360.671875 C 518.902344 362.683594 519.636719 364.714844 520.316406 366.765625 C 520.996094 368.816406 521.621094 370.886719 522.191406 372.972656 C 522.761719 375.054688 523.277344 377.15625 523.738281 379.265625 C 524.195312 381.378906 524.597656 383.5 524.941406 385.636719 C 525.285156 387.769531 525.574219 389.910156 525.804688 392.058594 C 526.035156 394.207031 526.210938 396.363281 526.324219 398.519531 C 526.441406 400.679688 526.5 402.839844 526.5 405 L 453.601562 405 Z M 522.125 528.347656 " fill-opacity="1" fill-rule="nonzero"/></svg>