<svg xmlns="http://www.w3.org/2000/svg" xmlns:xlink="http://www.w3.org/1999/xlink" width="1080" zoomAndPan="magnify" viewBox="0 0 810 809.999993" height="1080" preserveAspectRatio="xMidYMid meet" version="1.0"><defs><clipPath id="ceefab6b41"><path d="M 151.480469 176.199219 L 323 176.199219 L 323 349 L 151.480469 349 Z M 151.480469 176.199219 " clip-rule="nonzero"/></clipPath><clipPath id="a1d23c3d61"><path d="M 487 176.199219 L 658.480469 176.199219 L 658.480469 349 L 487 349 Z M 487 176.199219 " clip-rule="nonzero"/></clipPath><clipPath id="51c5bb23d3"><path d="M 487 461 L 658.480469 461 L 658.480469 633.699219 L 487 633.699219 Z M 487 461 " clip-rule="nonzero"/></clipPath><clipPath id="6a50a034de"><path d="M 151.480469 461 L 323 461 L 323 633.699219 L 151.480469 633.699219 Z M 151.480469 461 " clip-rule="nonzero"/></clipPath></defs><g clip-path="url(#ceefab6b41)"><path fill="#1f2a55" d="M 174.175781 348.773438 C 186.660156 348.773438 196.742188 338.6875 196.742188 326.207031 L 196.742188 248.269531 C 196.742188 233.386719 208.851562 221.332031 223.679688 221.332031 L 300.335938 221.332031 C 312.820312 221.332031 322.902344 211.25 322.902344 198.765625 C 322.902344 186.28125 312.820312 176.199219 300.335938 176.199219 L 223.679688 176.199219 C 183.9375 176.199219 151.609375 208.527344 151.609375 248.269531 L 151.609375 326.207031 C 151.609375 338.636719 161.691406 348.773438 174.175781 348.773438 Z M 174.175781 348.773438 " fill-opacity="1" fill-rule="nonzero"/></g><g clip-path="url(#a1d23c3d61)"><path fill="#1f2a55" d="M 586.320312 176.199219 L 509.714844 176.199219 C 497.234375 176.199219 487.152344 186.28125 487.152344 198.765625 C 487.152344 211.25 497.234375 221.332031 509.714844 221.332031 L 586.320312 221.332031 C 601.203125 221.332031 613.257812 233.441406 613.257812 248.269531 L 613.257812 326.207031 C 613.257812 338.6875 623.339844 348.773438 635.824219 348.773438 C 648.308594 348.773438 658.390625 338.6875 658.390625 326.207031 L 658.390625 248.269531 C 658.390625 208.527344 626.0625 176.199219 586.320312 176.199219 Z M 586.320312 176.199219 " fill-opacity="1" fill-rule="nonzero"/></g><g clip-path="url(#51c5bb23d3)"><path fill="#1f2a55" d="M 635.824219 461.222656 C 623.339844 461.222656 613.257812 471.304688 613.257812 483.789062 L 613.257812 561.726562 C 613.257812 576.554688 601.148438 588.664062 586.320312 588.664062 L 509.714844 588.664062 C 497.234375 588.664062 487.152344 598.746094 487.152344 611.230469 C 487.152344 623.710938 497.234375 633.792969 509.714844 633.792969 L 586.320312 633.792969 C 626.0625 633.792969 658.390625 601.46875 658.390625 561.726562 L 658.390625 483.789062 C 658.390625 471.359375 648.308594 461.222656 635.824219 461.222656 Z M 635.824219 461.222656 " fill-opacity="1" fill-rule="nonzero"/></g><g clip-path="url(#6a50a034de)"><path fill="#1f2a55" d="M 300.285156 588.664062 L 223.679688 588.664062 C 208.851562 588.664062 196.742188 576.554688 196.742188 561.726562 L 196.742188 483.789062 C 196.742188 471.359375 186.660156 461.222656 174.175781 461.222656 C 161.691406 461.222656 151.609375 471.359375 151.609375 483.789062 L 151.609375 561.726562 C 151.609375 601.46875 183.9375 633.792969 223.679688 633.792969 L 300.335938 633.792969 C 312.820312 633.792969 322.902344 623.710938 322.902344 611.230469 C 322.847656 598.746094 312.765625 588.664062 300.285156 588.664062 Z M 300.285156 588.664062 " fill-opacity="1" fill-rule="nonzero"/></g><path fill="#1f2a55" d="M 405 452.742188 C 428.3125 452.742188 447.25 433.75 447.25 410.4375 C 447.25 387.125 428.3125 368.1875 405 368.1875 C 381.6875 368.1875 362.75 387.125 362.75 410.4375 C 362.75 433.75 381.6875 452.742188 405 452.742188 Z M 405 452.742188 " fill-opacity="1" fill-rule="nonzero"/><path fill="#1f2a55" d="M 287.265625 316.125 C 269.609375 316.125 255.3125 330.421875 255.3125 348.078125 L 255.3125 484.160156 C 255.3125 501.820312 269.609375 516.113281 287.265625 516.113281 L 522.679688 516.113281 C 540.335938 516.113281 554.632812 501.820312 554.632812 484.160156 L 554.632812 348.023438 C 554.632812 330.367188 540.335938 316.070312 522.679688 316.070312 L 487.363281 316.070312 C 481.070312 316.070312 475.253906 312.871094 471.839844 307.535156 L 463.785156 294.839844 C 458.503906 286.519531 449.328125 281.503906 439.515625 281.503906 L 370.484375 281.503906 C 360.617188 281.503906 351.441406 286.519531 346.160156 294.839844 L 338.105469 307.535156 C 334.746094 312.816406 328.875 316.070312 322.582031 316.070312 L 287.265625 316.070312 Z M 405 338.261719 C 444.796875 338.261719 477.175781 370.644531 477.175781 410.4375 C 477.175781 450.234375 444.796875 482.613281 405 482.613281 C 365.203125 482.613281 332.769531 450.234375 332.769531 410.4375 C 332.769531 370.644531 365.203125 338.261719 405 338.261719 Z M 405 338.261719 " fill-opacity="1" fill-rule="nonzero"/></svg>