<svg xmlns="http://www.w3.org/2000/svg" xmlns:xlink="http://www.w3.org/1999/xlink" width="1080" zoomAndPan="magnify" viewBox="0 0 810 809.999993" height="1080" preserveAspectRatio="xMidYMid meet" version="1.0"><defs><clipPath id="6d36083154"><path d="M 121.4375 95.9375 L 688.4375 95.9375 L 688.4375 713.9375 L 121.4375 713.9375 Z M 121.4375 95.9375 " clip-rule="nonzero"/></clipPath></defs><g clip-path="url(#6d36083154)"><path fill="#ffffff" d="M 161.394531 147.710938 L 267.972656 147.710938 L 267.972656 168.9375 C 267.972656 195.324219 289.558594 216.917969 315.953125 216.917969 C 342.34375 216.917969 363.9375 195.324219 363.9375 168.9375 L 363.9375 147.710938 L 446.058594 147.710938 L 446.058594 168.9375 C 446.058594 195.324219 467.648438 216.917969 494.042969 216.917969 C 520.4375 216.917969 542.027344 195.324219 542.027344 168.9375 L 542.027344 147.710938 L 648.605469 147.710938 C 659.503906 147.710938 669.410156 152.15625 676.570312 159.339844 C 683.726562 166.484375 688.183594 176.394531 688.183594 187.296875 L 688.183594 298.023438 L 121.8125 298.023438 L 121.8125 187.296875 C 121.8125 176.394531 126.269531 166.484375 133.4375 159.339844 C 140.589844 152.15625 150.496094 147.710938 161.394531 147.710938 Z M 688.183594 342.320312 L 688.183594 674.523438 C 688.183594 685.414062 683.726562 695.320312 676.570312 702.480469 C 669.410156 709.636719 659.503906 714.097656 648.605469 714.097656 L 161.394531 714.097656 C 150.496094 714.097656 140.589844 709.636719 133.4375 702.480469 C 126.269531 695.320312 121.8125 685.414062 121.8125 674.523438 L 121.8125 342.320312 L 156.695312 342.320312 L 156.695312 674.523438 C 156.695312 675.78125 157.226562 676.957031 158.085938 677.816406 C 158.945312 678.675781 160.113281 679.214844 161.394531 679.214844 L 648.605469 679.214844 C 649.882812 679.214844 651.050781 678.675781 651.910156 677.816406 C 652.769531 676.957031 653.308594 675.78125 653.308594 674.523438 L 653.308594 342.320312 Z M 350.390625 342.320312 L 452.667969 342.320312 L 452.667969 404.410156 L 350.390625 404.410156 Z M 207.832031 575.257812 L 310.113281 575.257812 L 310.113281 637.339844 L 207.832031 637.339844 Z M 492.953125 575.257812 L 595.242188 575.257812 L 595.242188 637.339844 L 492.953125 637.339844 Z M 350.390625 575.257812 L 452.667969 575.257812 L 452.667969 637.339844 L 350.390625 637.339844 Z M 207.832031 458.78125 L 310.113281 458.78125 L 310.113281 520.875 L 207.832031 520.875 Z M 492.953125 458.78125 L 595.242188 458.78125 L 595.242188 520.875 L 492.953125 520.875 Z M 350.390625 458.78125 L 452.667969 458.78125 L 452.667969 520.875 L 350.390625 520.875 Z M 207.832031 342.320312 L 310.113281 342.320312 L 310.113281 404.410156 L 207.832031 404.410156 Z M 492.953125 342.320312 L 595.242188 342.320312 L 595.242188 404.410156 L 492.953125 404.410156 Z M 315.953125 95.9375 C 299.183594 95.9375 285.410156 109.730469 285.410156 126.492188 L 285.410156 168.9375 C 285.410156 185.707031 299.183594 199.484375 315.953125 199.484375 C 332.71875 199.484375 346.496094 185.707031 346.496094 168.9375 L 346.496094 126.492188 C 346.496094 109.730469 332.71875 95.9375 315.953125 95.9375 Z M 494.042969 95.9375 C 477.273438 95.9375 463.492188 109.730469 463.492188 126.492188 L 463.492188 168.9375 C 463.492188 185.707031 477.273438 199.484375 494.042969 199.484375 C 510.804688 199.484375 524.585938 185.707031 524.585938 168.9375 L 524.585938 126.492188 C 524.585938 109.730469 510.804688 95.9375 494.042969 95.9375 Z M 494.042969 95.9375 " fill-opacity="1" fill-rule="nonzero"/></g></svg>