<svg xmlns="http://www.w3.org/2000/svg" xmlns:xlink="http://www.w3.org/1999/xlink" width="693" zoomAndPan="magnify" viewBox="0 0 519.75 183.750001" height="245" preserveAspectRatio="xMidYMid meet" version="1.0"><defs><g/><clipPath id="a1475e250d"><path d="M 179.757812 22.566406 L 292.105469 22.566406 L 292.105469 89 L 179.757812 89 Z M 179.757812 22.566406 " clip-rule="nonzero"/></clipPath><clipPath id="fab4ef9c25"><path d="M 179.757812 68 L 292.105469 68 L 292.105469 134.914062 L 179.757812 134.914062 Z M 179.757812 68 " clip-rule="nonzero"/></clipPath><clipPath id="0c5940eed5"><path d="M 179.757812 59 L 187 59 L 187 67 L 179.757812 67 Z M 179.757812 59 " clip-rule="nonzero"/></clipPath><clipPath id="65273fae4e"><path d="M 179.757812 90 L 188 90 L 188 98 L 179.757812 98 Z M 179.757812 90 " clip-rule="nonzero"/></clipPath><clipPath id="538e6c4d00"><path d="M 284 59 L 292.105469 59 L 292.105469 67 L 284 67 Z M 284 59 " clip-rule="nonzero"/></clipPath><clipPath id="a0e9e6156a"><path d="M 284 90 L 292.105469 90 L 292.105469 98 L 284 98 Z M 284 90 " clip-rule="nonzero"/></clipPath><clipPath id="2b82551af4"><rect x="0" width="138" y="0" height="117"/></clipPath><clipPath id="51aff29530"><rect x="0" width="198" y="0" height="117"/></clipPath></defs><path fill="#ffffff" d="M 276.871094 78.273438 C 276.871094 79.617188 276.804688 80.960938 276.671875 82.296875 C 276.539062 83.636719 276.34375 84.960938 276.082031 86.28125 C 275.820312 87.597656 275.492188 88.902344 275.101562 90.1875 C 274.710938 91.472656 274.257812 92.738281 273.746094 93.980469 C 273.230469 95.222656 272.65625 96.433594 272.023438 97.621094 C 271.390625 98.804688 270.699219 99.957031 269.953125 101.074219 C 269.207031 102.191406 268.40625 103.269531 267.554688 104.308594 C 266.699219 105.347656 265.800781 106.34375 264.847656 107.292969 C 263.898438 108.246094 262.902344 109.148438 261.863281 110 C 260.824219 110.851562 259.746094 111.652344 258.628906 112.398438 C 257.511719 113.144531 256.359375 113.835938 255.175781 114.46875 C 253.988281 115.101562 252.777344 115.675781 251.535156 116.191406 C 250.292969 116.707031 249.027344 117.15625 247.742188 117.546875 C 246.457031 117.9375 245.152344 118.265625 243.835938 118.527344 C 242.515625 118.789062 241.1875 118.984375 239.851562 119.117188 C 238.511719 119.25 237.171875 119.316406 235.828125 119.316406 C 234.484375 119.316406 233.144531 119.25 231.804688 119.117188 C 230.46875 118.984375 229.140625 118.789062 227.820312 118.527344 C 226.503906 118.265625 225.203125 117.9375 223.914062 117.546875 C 222.628906 117.15625 221.363281 116.707031 220.121094 116.191406 C 218.882812 115.675781 217.667969 115.101562 216.480469 114.46875 C 215.296875 113.835938 214.144531 113.144531 213.027344 112.398438 C 211.910156 111.652344 210.832031 110.851562 209.792969 110 C 208.753906 109.148438 207.757812 108.246094 206.808594 107.292969 C 205.859375 106.34375 204.957031 105.347656 204.105469 104.308594 C 203.25 103.269531 202.453125 102.191406 201.703125 101.074219 C 200.957031 99.957031 200.265625 98.804688 199.632812 97.621094 C 199 96.433594 198.425781 95.222656 197.910156 93.980469 C 197.398438 92.738281 196.945312 91.472656 196.554688 90.1875 C 196.164062 88.902344 195.839844 87.597656 195.578125 86.28125 C 195.3125 84.960938 195.117188 83.636719 194.984375 82.296875 C 194.855469 80.960938 194.789062 79.617188 194.789062 78.273438 C 194.789062 76.929688 194.855469 75.589844 194.984375 74.25 C 195.117188 72.914062 195.3125 71.585938 195.578125 70.269531 C 195.839844 68.949219 196.164062 67.648438 196.554688 66.359375 C 196.945312 65.074219 197.398438 63.8125 197.910156 62.570312 C 198.425781 61.328125 199 60.113281 199.632812 58.929688 C 200.265625 57.742188 200.957031 56.589844 201.703125 55.472656 C 202.453125 54.355469 203.25 53.277344 204.105469 52.238281 C 204.957031 51.199219 205.859375 50.203125 206.808594 49.253906 C 207.757812 48.304688 208.753906 47.402344 209.792969 46.550781 C 210.832031 45.695312 211.910156 44.898438 213.027344 44.148438 C 214.144531 43.402344 215.296875 42.714844 216.480469 42.078125 C 217.667969 41.445312 218.882812 40.871094 220.121094 40.359375 C 221.363281 39.84375 222.628906 39.390625 223.914062 39 C 225.203125 38.609375 226.503906 38.285156 227.820312 38.023438 C 229.140625 37.761719 230.46875 37.5625 231.804688 37.429688 C 233.144531 37.300781 234.484375 37.234375 235.828125 37.234375 C 237.171875 37.234375 238.511719 37.300781 239.851562 37.429688 C 241.1875 37.5625 242.515625 37.761719 243.835938 38.023438 C 245.152344 38.285156 246.457031 38.609375 247.742188 39 C 249.027344 39.390625 250.292969 39.84375 251.535156 40.359375 C 252.777344 40.871094 253.988281 41.445312 255.175781 42.078125 C 256.359375 42.714844 257.511719 43.402344 258.628906 44.148438 C 259.746094 44.898438 260.824219 45.695312 261.863281 46.550781 C 262.902344 47.402344 263.898438 48.304688 264.847656 49.253906 C 265.800781 50.203125 266.699219 51.199219 267.554688 52.238281 C 268.40625 53.277344 269.207031 54.355469 269.953125 55.472656 C 270.699219 56.589844 271.390625 57.742188 272.023438 58.929688 C 272.65625 60.113281 273.230469 61.328125 273.746094 62.570312 C 274.257812 63.8125 274.710938 65.074219 275.101562 66.359375 C 275.492188 67.648438 275.820312 68.949219 276.082031 70.269531 C 276.34375 71.585938 276.539062 72.914062 276.671875 74.25 C 276.804688 75.589844 276.871094 76.929688 276.871094 78.273438 Z M 276.871094 78.273438 " fill-opacity="1" fill-rule="nonzero"/><g clip-path="url(#a1475e250d)"><path stroke-linecap="butt" transform="matrix(1.560486, 0, 0, 1.560486, 168.727719, 10.237289)" fill="none" stroke-linejoin="miter" d="M 9.499007 32.500036 C 14.200068 18.499486 27.399585 8.499092 42.999698 8.499092 C 58.599811 8.499092 71.799328 18.599615 76.500389 32.500036 " stroke="#010202" stroke-width="1.228" stroke-opacity="1" stroke-miterlimit="10"/></g><g clip-path="url(#fab4ef9c25)"><path stroke-linecap="butt" transform="matrix(1.560486, 0, 0, 1.560486, 168.727719, 10.237289)" fill="none" stroke-linejoin="miter" d="M 9.398878 54.500901 C 13.89968 68.799336 27.299456 79.100116 42.999698 79.100116 C 58.69994 79.100116 72.099716 68.799336 76.700648 54.500901 " stroke="#010202" stroke-width="1.228" stroke-opacity="1" stroke-miterlimit="10"/></g><g clip-path="url(#0c5940eed5)"><path fill="#ffffff" d="M 186.984375 62.824219 C 186.984375 63.300781 186.894531 63.757812 186.710938 64.199219 C 186.53125 64.640625 186.269531 65.027344 185.933594 65.363281 C 185.597656 65.699219 185.210938 65.960938 184.769531 66.140625 C 184.328125 66.324219 183.871094 66.414062 183.394531 66.414062 C 182.921875 66.414062 182.460938 66.324219 182.023438 66.140625 C 181.582031 65.960938 181.195312 65.699219 180.859375 65.363281 C 180.523438 65.027344 180.261719 64.640625 180.082031 64.199219 C 179.898438 63.757812 179.808594 63.300781 179.808594 62.824219 C 179.808594 62.351562 179.898438 61.890625 180.082031 61.453125 C 180.261719 61.011719 180.523438 60.625 180.859375 60.289062 C 181.195312 59.953125 181.582031 59.691406 182.023438 59.507812 C 182.460938 59.328125 182.921875 59.238281 183.394531 59.238281 C 183.871094 59.238281 184.328125 59.328125 184.769531 59.507812 C 185.210938 59.691406 185.597656 59.953125 185.933594 60.289062 C 186.269531 60.625 186.53125 61.011719 186.710938 61.453125 C 186.894531 61.890625 186.984375 62.351562 186.984375 62.824219 Z M 186.984375 62.824219 " fill-opacity="1" fill-rule="nonzero"/></g><g clip-path="url(#65273fae4e)"><path fill="#ffffff" d="M 187.140625 94.347656 C 187.140625 94.824219 187.050781 95.28125 186.867188 95.722656 C 186.6875 96.160156 186.425781 96.546875 186.089844 96.886719 C 185.753906 97.222656 185.367188 97.480469 184.925781 97.664062 C 184.484375 97.84375 184.027344 97.9375 183.550781 97.9375 C 183.078125 97.9375 182.617188 97.84375 182.179688 97.664062 C 181.738281 97.480469 181.351562 97.222656 181.015625 96.886719 C 180.679688 96.546875 180.417969 96.160156 180.238281 95.722656 C 180.054688 95.28125 179.964844 94.824219 179.964844 94.347656 C 179.964844 93.871094 180.054688 93.414062 180.238281 92.972656 C 180.417969 92.535156 180.679688 92.144531 181.015625 91.808594 C 181.351562 91.472656 181.738281 91.214844 182.179688 91.03125 C 182.617188 90.847656 183.078125 90.757812 183.550781 90.757812 C 184.027344 90.757812 184.484375 90.847656 184.925781 91.03125 C 185.367188 91.214844 185.753906 91.472656 186.089844 91.808594 C 186.425781 92.144531 186.6875 92.535156 186.867188 92.972656 C 187.050781 93.414062 187.140625 93.871094 187.140625 94.347656 Z M 187.140625 94.347656 " fill-opacity="1" fill-rule="nonzero"/></g><g clip-path="url(#538e6c4d00)"><path fill="#ffffff" d="M 292.164062 62.667969 C 292.160156 63.144531 292.070312 63.601562 291.890625 64.042969 C 291.707031 64.484375 291.449219 64.871094 291.109375 65.207031 C 290.773438 65.542969 290.386719 65.804688 289.945312 65.984375 C 289.507812 66.167969 289.050781 66.257812 288.574219 66.257812 C 288.097656 66.257812 287.640625 66.167969 287.199219 65.984375 C 286.761719 65.804688 286.371094 65.542969 286.035156 65.207031 C 285.699219 64.871094 285.4375 64.484375 285.257812 64.042969 C 285.074219 63.601562 284.984375 63.144531 284.984375 62.667969 C 284.984375 62.195312 285.074219 61.734375 285.257812 61.296875 C 285.4375 60.855469 285.699219 60.46875 286.035156 60.132812 C 286.371094 59.796875 286.761719 59.535156 287.199219 59.355469 C 287.640625 59.171875 288.097656 59.082031 288.574219 59.082031 C 289.050781 59.082031 289.507812 59.171875 289.945312 59.355469 C 290.386719 59.535156 290.773438 59.796875 291.109375 60.132812 C 291.449219 60.46875 291.707031 60.855469 291.890625 61.296875 C 292.070312 61.734375 292.160156 62.195312 292.164062 62.667969 Z M 292.164062 62.667969 " fill-opacity="1" fill-rule="nonzero"/></g><g clip-path="url(#a0e9e6156a)"><path fill="#ffffff" d="M 292.164062 94.347656 C 292.160156 94.824219 292.070312 95.28125 291.890625 95.722656 C 291.707031 96.160156 291.449219 96.546875 291.109375 96.886719 C 290.773438 97.222656 290.386719 97.480469 289.945312 97.664062 C 289.507812 97.84375 289.050781 97.9375 288.574219 97.9375 C 288.097656 97.9375 287.640625 97.84375 287.199219 97.664062 C 286.761719 97.480469 286.371094 97.222656 286.035156 96.886719 C 285.699219 96.546875 285.4375 96.160156 285.257812 95.722656 C 285.074219 95.28125 284.984375 94.824219 284.984375 94.347656 C 284.984375 93.871094 285.074219 93.414062 285.257812 92.972656 C 285.4375 92.535156 285.699219 92.144531 286.035156 91.808594 C 286.371094 91.472656 286.761719 91.214844 287.199219 91.03125 C 287.640625 90.847656 288.097656 90.757812 288.574219 90.757812 C 289.050781 90.757812 289.507812 90.847656 289.945312 91.03125 C 290.386719 91.214844 290.773438 91.472656 291.109375 91.808594 C 291.449219 92.144531 291.707031 92.535156 291.890625 92.972656 C 292.070312 93.414062 292.160156 93.871094 292.164062 94.347656 Z M 292.164062 94.347656 " fill-opacity="1" fill-rule="nonzero"/></g><path fill="#16337c" d="M 250.496094 98.25 C 251.277344 98.25 251.902344 97.625 251.902344 96.84375 L 251.902344 81.238281 L 255.648438 81.238281 C 257.050781 81.238281 258.144531 80.148438 258.144531 78.742188 C 258.144531 77.960938 257.832031 77.183594 257.207031 76.714844 L 252.371094 72.34375 L 252.371094 65.167969 C 252.371094 64.386719 251.746094 63.605469 250.808594 63.605469 L 247.6875 63.605469 C 246.90625 63.605469 246.128906 64.230469 246.128906 65.167969 L 246.128906 67.039062 L 237.546875 59.394531 C 236.609375 58.613281 235.203125 58.613281 234.269531 59.394531 L 214.761719 76.714844 C 213.980469 77.339844 213.667969 78.585938 214.136719 79.523438 C 214.605469 80.460938 215.386719 81.238281 216.480469 81.238281 L 220.222656 81.238281 L 220.222656 96.84375 C 220.222656 97.625 220.847656 98.25 221.628906 98.25 L 230.054688 98.25 L 230.054688 86.855469 C 230.054688 85.296875 231.304688 83.890625 232.863281 83.890625 L 239.105469 83.890625 C 240.667969 83.890625 241.914062 85.140625 241.914062 86.855469 L 241.914062 98.25 Z M 250.496094 98.25 " fill-opacity="1" fill-rule="nonzero"/><g transform="matrix(1, 0, 0, 1, 38, 31)"><g clip-path="url(#2b82551af4)"><g fill="#000000" fill-opacity="0.4"><g transform="translate(6.80626, 88.153059)"><g><path d="M 33.671875 -77.703125 C 37.804688 -77.703125 41.84375 -77.097656 45.78125 -75.890625 C 49.726562 -74.691406 52.660156 -73.503906 54.578125 -72.328125 L 57.34375 -70.484375 L 50.3125 -56.609375 C 49.757812 -56.984375 48.988281 -57.460938 48 -58.046875 C 47.019531 -58.628906 45.171875 -59.410156 42.453125 -60.390625 C 39.742188 -61.378906 37.21875 -61.875 34.875 -61.875 C 31.976562 -61.875 29.742188 -61.257812 28.171875 -60.03125 C 26.597656 -58.800781 25.8125 -57.132812 25.8125 -55.03125 C 25.8125 -53.988281 26.179688 -53.019531 26.921875 -52.125 C 27.660156 -51.226562 28.921875 -50.269531 30.703125 -49.25 C 32.492188 -48.238281 34.066406 -47.421875 35.421875 -46.796875 C 36.785156 -46.179688 38.882812 -45.257812 41.71875 -44.03125 C 46.65625 -41.9375 50.863281 -39.082031 54.34375 -35.46875 C 57.820312 -31.863281 59.5625 -27.78125 59.5625 -23.21875 C 59.5625 -18.84375 58.773438 -15.019531 57.203125 -11.75 C 55.640625 -8.476562 53.484375 -5.914062 50.734375 -4.0625 C 47.992188 -2.21875 44.957031 -0.847656 41.625 0.046875 C 38.289062 0.941406 34.679688 1.390625 30.796875 1.390625 C 27.472656 1.390625 24.207031 1.050781 21 0.375 C 17.789062 -0.300781 15.109375 -1.148438 12.953125 -2.171875 C 10.796875 -3.191406 8.851562 -4.191406 7.125 -5.171875 C 5.394531 -6.160156 4.128906 -6.992188 3.328125 -7.671875 L 2.125 -8.6875 L 10.828125 -23.3125 C 11.566406 -22.695312 12.582031 -21.910156 13.875 -20.953125 C 15.164062 -19.992188 17.460938 -18.710938 20.765625 -17.109375 C 24.066406 -15.503906 26.976562 -14.703125 29.5 -14.703125 C 36.84375 -14.703125 40.515625 -17.203125 40.515625 -22.203125 C 40.515625 -23.242188 40.25 -24.210938 39.71875 -25.109375 C 39.195312 -26.003906 38.273438 -26.898438 36.953125 -27.796875 C 35.628906 -28.691406 34.457031 -29.398438 33.4375 -29.921875 C 32.414062 -30.441406 30.75 -31.242188 28.4375 -32.328125 C 26.125 -33.410156 24.414062 -34.226562 23.3125 -34.78125 C 18.6875 -37.0625 15.109375 -39.910156 12.578125 -43.328125 C 10.046875 -46.753906 8.78125 -50.441406 8.78125 -54.390625 C 8.78125 -61.234375 11.304688 -66.828125 16.359375 -71.171875 C 21.421875 -75.523438 27.191406 -77.703125 33.671875 -77.703125 Z M 33.671875 -77.703125 "/></g></g></g><g fill="#000000" fill-opacity="0.4"><g transform="translate(68.963637, 88.153059)"><g><path d="M 22.9375 -30.625 L 22.9375 0 L 5.546875 0 L 5.546875 -76.3125 L 22.9375 -76.3125 L 22.9375 -45.875 L 47.546875 -45.875 L 47.546875 -76.3125 L 64.9375 -76.3125 L 64.9375 0 L 47.546875 0 L 47.546875 -30.625 Z M 22.9375 -30.625 "/></g></g></g><g fill="#ffffff" fill-opacity="1"><g transform="translate(2.718466, 84.065267)"><g><path d="M 33.671875 -77.703125 C 37.804688 -77.703125 41.84375 -77.097656 45.78125 -75.890625 C 49.726562 -74.691406 52.660156 -73.503906 54.578125 -72.328125 L 57.34375 -70.484375 L 50.3125 -56.609375 C 49.757812 -56.984375 48.988281 -57.460938 48 -58.046875 C 47.019531 -58.628906 45.171875 -59.410156 42.453125 -60.390625 C 39.742188 -61.378906 37.21875 -61.875 34.875 -61.875 C 31.976562 -61.875 29.742188 -61.257812 28.171875 -60.03125 C 26.597656 -58.800781 25.8125 -57.132812 25.8125 -55.03125 C 25.8125 -53.988281 26.179688 -53.019531 26.921875 -52.125 C 27.660156 -51.226562 28.921875 -50.269531 30.703125 -49.25 C 32.492188 -48.238281 34.066406 -47.421875 35.421875 -46.796875 C 36.785156 -46.179688 38.882812 -45.257812 41.71875 -44.03125 C 46.65625 -41.9375 50.863281 -39.082031 54.34375 -35.46875 C 57.820312 -31.863281 59.5625 -27.78125 59.5625 -23.21875 C 59.5625 -18.84375 58.773438 -15.019531 57.203125 -11.75 C 55.640625 -8.476562 53.484375 -5.914062 50.734375 -4.0625 C 47.992188 -2.21875 44.957031 -0.847656 41.625 0.046875 C 38.289062 0.941406 34.679688 1.390625 30.796875 1.390625 C 27.472656 1.390625 24.207031 1.050781 21 0.375 C 17.789062 -0.300781 15.109375 -1.148438 12.953125 -2.171875 C 10.796875 -3.191406 8.851562 -4.191406 7.125 -5.171875 C 5.394531 -6.160156 4.128906 -6.992188 3.328125 -7.671875 L 2.125 -8.6875 L 10.828125 -23.3125 C 11.566406 -22.695312 12.582031 -21.910156 13.875 -20.953125 C 15.164062 -19.992188 17.460938 -18.710938 20.765625 -17.109375 C 24.066406 -15.503906 26.976562 -14.703125 29.5 -14.703125 C 36.84375 -14.703125 40.515625 -17.203125 40.515625 -22.203125 C 40.515625 -23.242188 40.25 -24.210938 39.71875 -25.109375 C 39.195312 -26.003906 38.273438 -26.898438 36.953125 -27.796875 C 35.628906 -28.691406 34.457031 -29.398438 33.4375 -29.921875 C 32.414062 -30.441406 30.75 -31.242188 28.4375 -32.328125 C 26.125 -33.410156 24.414062 -34.226562 23.3125 -34.78125 C 18.6875 -37.0625 15.109375 -39.910156 12.578125 -43.328125 C 10.046875 -46.753906 8.78125 -50.441406 8.78125 -54.390625 C 8.78125 -61.234375 11.304688 -66.828125 16.359375 -71.171875 C 21.421875 -75.523438 27.191406 -77.703125 33.671875 -77.703125 Z M 33.671875 -77.703125 "/></g></g></g><g fill="#ffffff" fill-opacity="1"><g transform="translate(64.875843, 84.065267)"><g><path d="M 22.9375 -30.625 L 22.9375 0 L 5.546875 0 L 5.546875 -76.3125 L 22.9375 -76.3125 L 22.9375 -45.875 L 47.546875 -45.875 L 47.546875 -76.3125 L 64.9375 -76.3125 L 64.9375 0 L 47.546875 0 L 47.546875 -30.625 Z M 22.9375 -30.625 "/></g></g></g></g></g><g transform="matrix(1, 0, 0, 1, 293, 31)"><g clip-path="url(#51aff29530)"><g fill="#000000" fill-opacity="0.4"><g transform="translate(5.566424, 88.153059)"><g><path d="M 5.546875 -76.3125 L 32.84375 -76.3125 C 40.175781 -76.3125 46.15625 -74.351562 50.78125 -70.4375 C 55.40625 -66.519531 57.71875 -60.925781 57.71875 -53.65625 C 57.71875 -48.039062 56.3125 -43.335938 53.5 -39.546875 C 50.695312 -35.753906 46.894531 -33.085938 42.09375 -31.546875 L 68.359375 0 L 46.25 0 L 22.9375 -30.15625 L 22.9375 0 L 5.546875 0 Z M 22.9375 -42.453125 L 24.96875 -42.453125 C 26.570312 -42.453125 27.925781 -42.484375 29.03125 -42.546875 C 30.144531 -42.609375 31.410156 -42.820312 32.828125 -43.1875 C 34.253906 -43.5625 35.398438 -44.085938 36.265625 -44.765625 C 37.128906 -45.441406 37.867188 -46.425781 38.484375 -47.71875 C 39.097656 -49.019531 39.40625 -50.59375 39.40625 -52.4375 C 39.40625 -54.289062 39.097656 -55.863281 38.484375 -57.15625 C 37.867188 -58.457031 37.128906 -59.445312 36.265625 -60.125 C 35.398438 -60.800781 34.253906 -61.320312 32.828125 -61.6875 C 31.410156 -62.0625 30.144531 -62.28125 29.03125 -62.34375 C 27.925781 -62.40625 26.570312 -62.4375 24.96875 -62.4375 L 22.9375 -62.4375 Z M 22.9375 -42.453125 "/></g></g></g><g fill="#000000" fill-opacity="0.4"><g transform="translate(68.093759, 88.153059)"><g><path d="M 0.734375 -61.046875 L 0.734375 -76.3125 L 54.390625 -76.3125 L 54.390625 -61.046875 L 36.265625 -61.046875 L 36.265625 0 L 18.875 0 L 18.875 -61.046875 Z M 0.734375 -61.046875 "/></g></g></g><g fill="#000000" fill-opacity="0.4"><g transform="translate(123.221442, 88.153059)"><g><path d="M -2.78125 -76.3125 L 18.125 -76.3125 L 34.046875 -51.890625 L 49.953125 -76.3125 L 70.859375 -76.3125 L 42.734375 -34.21875 L 42.734375 0 L 25.34375 0 L 25.34375 -34.21875 Z M -2.78125 -76.3125 "/></g></g></g><g fill="#ffffff" fill-opacity="1"><g transform="translate(1.478626, 84.065267)"><g><path d="M 5.546875 -76.3125 L 32.84375 -76.3125 C 40.175781 -76.3125 46.15625 -74.351562 50.78125 -70.4375 C 55.40625 -66.519531 57.71875 -60.925781 57.71875 -53.65625 C 57.71875 -48.039062 56.3125 -43.335938 53.5 -39.546875 C 50.695312 -35.753906 46.894531 -33.085938 42.09375 -31.546875 L 68.359375 0 L 46.25 0 L 22.9375 -30.15625 L 22.9375 0 L 5.546875 0 Z M 22.9375 -42.453125 L 24.96875 -42.453125 C 26.570312 -42.453125 27.925781 -42.484375 29.03125 -42.546875 C 30.144531 -42.609375 31.410156 -42.820312 32.828125 -43.1875 C 34.253906 -43.5625 35.398438 -44.085938 36.265625 -44.765625 C 37.128906 -45.441406 37.867188 -46.425781 38.484375 -47.71875 C 39.097656 -49.019531 39.40625 -50.59375 39.40625 -52.4375 C 39.40625 -54.289062 39.097656 -55.863281 38.484375 -57.15625 C 37.867188 -58.457031 37.128906 -59.445312 36.265625 -60.125 C 35.398438 -60.800781 34.253906 -61.320312 32.828125 -61.6875 C 31.410156 -62.0625 30.144531 -62.28125 29.03125 -62.34375 C 27.925781 -62.40625 26.570312 -62.4375 24.96875 -62.4375 L 22.9375 -62.4375 Z M 22.9375 -42.453125 "/></g></g></g><g fill="#ffffff" fill-opacity="1"><g transform="translate(64.005962, 84.065267)"><g><path d="M 0.734375 -61.046875 L 0.734375 -76.3125 L 54.390625 -76.3125 L 54.390625 -61.046875 L 36.265625 -61.046875 L 36.265625 0 L 18.875 0 L 18.875 -61.046875 Z M 0.734375 -61.046875 "/></g></g></g><g fill="#ffffff" fill-opacity="1"><g transform="translate(119.133644, 84.065267)"><g><path d="M -2.78125 -76.3125 L 18.125 -76.3125 L 34.046875 -51.890625 L 49.953125 -76.3125 L 70.859375 -76.3125 L 42.734375 -34.21875 L 42.734375 0 L 25.34375 0 L 25.34375 -34.21875 Z M -2.78125 -76.3125 "/></g></g></g></g></g></svg>