<svg xmlns="http://www.w3.org/2000/svg" xmlns:xlink="http://www.w3.org/1999/xlink" width="1080" zoomAndPan="magnify" viewBox="0 0 810 809.999993" height="1080" preserveAspectRatio="xMidYMid meet" version="1.0"><path fill="#ffffff" d="M 570.414062 258.492188 C 570.414062 261.214844 570.347656 263.941406 570.214844 266.660156 C 570.078125 269.382812 569.878906 272.097656 569.613281 274.8125 C 569.34375 277.523438 569.011719 280.226562 568.613281 282.921875 C 568.210938 285.617188 567.746094 288.300781 567.214844 290.972656 C 566.683594 293.644531 566.085938 296.304688 565.425781 298.945312 C 564.761719 301.589844 564.035156 304.214844 563.246094 306.820312 C 562.453125 309.429688 561.597656 312.015625 560.679688 314.582031 C 559.761719 317.148438 558.78125 319.6875 557.742188 322.207031 C 556.699219 324.722656 555.59375 327.214844 554.429688 329.675781 C 553.265625 332.140625 552.039062 334.574219 550.753906 336.976562 C 549.46875 339.378906 548.128906 341.75 546.726562 344.085938 C 545.324219 346.421875 543.867188 348.722656 542.355469 350.988281 C 540.839844 353.253906 539.273438 355.480469 537.648438 357.671875 C 536.027344 359.859375 534.351562 362.007812 532.621094 364.113281 C 530.894531 366.21875 529.113281 368.28125 527.285156 370.300781 C 525.453125 372.320312 523.574219 374.292969 521.648438 376.21875 C 519.722656 378.144531 517.75 380.023438 515.730469 381.855469 C 513.710938 383.683594 511.648438 385.464844 509.542969 387.191406 C 507.4375 388.921875 505.289062 390.597656 503.101562 392.21875 C 500.914062 393.84375 498.683594 395.410156 496.417969 396.925781 C 494.152344 398.4375 491.851562 399.894531 489.515625 401.296875 C 487.179688 402.699219 484.808594 404.039062 482.40625 405.324219 C 480.003906 406.609375 477.570312 407.832031 475.105469 409 C 472.644531 410.164062 470.152344 411.269531 467.636719 412.308594 C 465.117188 413.351562 462.578125 414.332031 460.011719 415.25 C 457.445312 416.167969 454.859375 417.023438 452.25 417.816406 C 449.644531 418.605469 447.019531 419.332031 444.375 419.996094 C 441.734375 420.65625 439.074219 421.253906 436.402344 421.785156 C 433.730469 422.316406 431.046875 422.78125 428.351562 423.183594 C 425.65625 423.582031 422.953125 423.914062 420.242188 424.183594 C 417.527344 424.449219 414.8125 424.648438 412.089844 424.785156 C 409.371094 424.917969 406.644531 424.984375 403.921875 424.984375 C 401.195312 424.984375 398.472656 424.917969 395.753906 424.785156 C 393.03125 424.648438 390.3125 424.449219 387.601562 424.183594 C 384.890625 423.914062 382.1875 423.582031 379.492188 423.183594 C 376.796875 422.78125 374.113281 422.316406 371.441406 421.785156 C 368.769531 421.253906 366.109375 420.65625 363.46875 419.996094 C 360.824219 419.332031 358.199219 418.605469 355.589844 417.816406 C 352.984375 417.023438 350.398438 416.167969 347.832031 415.25 C 345.265625 414.332031 342.726562 413.351562 340.207031 412.308594 C 337.691406 411.269531 335.199219 410.164062 332.738281 409 C 330.273438 407.832031 327.839844 406.609375 325.4375 405.324219 C 323.035156 404.039062 320.664062 402.699219 318.328125 401.296875 C 315.992188 399.894531 313.6875 398.4375 311.421875 396.925781 C 309.15625 395.410156 306.929688 393.84375 304.742188 392.21875 C 302.554688 390.597656 300.40625 388.921875 298.300781 387.191406 C 296.195312 385.464844 294.132812 383.683594 292.113281 381.855469 C 290.09375 380.023438 288.121094 378.144531 286.195312 376.21875 C 284.265625 374.292969 282.390625 372.320312 280.558594 370.300781 C 278.730469 368.28125 276.949219 366.21875 275.222656 364.113281 C 273.492188 362.007812 271.816406 359.859375 270.195312 357.671875 C 268.570312 355.480469 267.003906 353.253906 265.488281 350.988281 C 263.972656 348.722656 262.515625 346.421875 261.117188 344.085938 C 259.714844 341.75 258.371094 339.378906 257.089844 336.976562 C 255.804688 334.574219 254.578125 332.140625 253.414062 329.675781 C 252.25 327.214844 251.144531 324.722656 250.101562 322.207031 C 249.058594 319.6875 248.078125 317.148438 247.160156 314.582031 C 246.242188 312.015625 245.390625 309.429688 244.597656 306.820312 C 243.808594 304.214844 243.082031 301.589844 242.417969 298.945312 C 241.757812 296.304688 241.160156 293.644531 240.628906 290.972656 C 240.097656 288.300781 239.632812 285.617188 239.230469 282.921875 C 238.832031 280.226562 238.5 277.523438 238.230469 274.8125 C 237.964844 272.097656 237.761719 269.382812 237.628906 266.660156 C 237.496094 263.941406 237.429688 261.214844 237.429688 258.492188 C 237.429688 255.765625 237.496094 253.042969 237.628906 250.320312 C 237.761719 247.601562 237.964844 244.882812 238.230469 242.171875 C 238.5 239.460938 238.832031 236.757812 239.230469 234.0625 C 239.632812 231.367188 240.097656 228.683594 240.628906 226.011719 C 241.160156 223.339844 241.757812 220.679688 242.417969 218.039062 C 243.082031 215.394531 243.808594 212.769531 244.597656 210.160156 C 245.390625 207.554688 246.242188 204.96875 247.160156 202.402344 C 248.078125 199.835938 249.058594 197.296875 250.101562 194.777344 C 251.144531 192.261719 252.25 189.769531 253.414062 187.308594 C 254.578125 184.84375 255.804688 182.410156 257.089844 180.007812 C 258.371094 177.605469 259.714844 175.234375 261.117188 172.898438 C 262.515625 170.558594 263.972656 168.257812 265.488281 165.992188 C 267.003906 163.726562 268.570312 161.5 270.195312 159.3125 C 271.816406 157.125 273.492188 154.976562 275.222656 152.871094 C 276.949219 150.765625 278.730469 148.699219 280.558594 146.683594 C 282.390625 144.664062 284.265625 142.691406 286.195312 140.765625 C 288.121094 138.835938 290.09375 136.957031 292.113281 135.128906 C 294.132812 133.300781 296.195312 131.519531 298.300781 129.792969 C 300.40625 128.0625 302.554688 126.386719 304.742188 124.765625 C 306.929688 123.140625 309.15625 121.570312 311.421875 120.058594 C 313.6875 118.542969 315.992188 117.085938 318.328125 115.6875 C 320.664062 114.285156 323.035156 112.941406 325.4375 111.660156 C 327.839844 110.375 330.273438 109.148438 332.738281 107.984375 C 335.199219 106.820312 337.691406 105.714844 340.207031 104.671875 C 342.726562 103.628906 345.265625 102.648438 347.832031 101.730469 C 350.398438 100.8125 352.984375 99.960938 355.589844 99.167969 C 358.199219 98.378906 360.824219 97.652344 363.46875 96.988281 C 366.109375 96.328125 368.769531 95.730469 371.441406 95.199219 C 374.113281 94.667969 376.796875 94.199219 379.492188 93.800781 C 382.1875 93.402344 384.890625 93.066406 387.601562 92.800781 C 390.3125 92.535156 393.03125 92.332031 395.753906 92.199219 C 398.472656 92.066406 401.195312 92 403.921875 92 C 406.644531 92 409.371094 92.066406 412.089844 92.199219 C 414.8125 92.332031 417.527344 92.535156 420.242188 92.800781 C 422.953125 93.066406 425.65625 93.402344 428.351562 93.800781 C 431.046875 94.199219 433.730469 94.667969 436.402344 95.199219 C 439.074219 95.730469 441.734375 96.328125 444.375 96.988281 C 447.019531 97.652344 449.644531 98.378906 452.25 99.167969 C 454.859375 99.960938 457.445312 100.8125 460.011719 101.730469 C 462.578125 102.648438 465.117188 103.628906 467.636719 104.671875 C 470.152344 105.714844 472.644531 106.820312 475.105469 107.984375 C 477.570312 109.148438 480.003906 110.375 482.40625 111.660156 C 484.808594 112.941406 487.179688 114.285156 489.515625 115.6875 C 491.851562 117.085938 494.152344 118.542969 496.417969 120.058594 C 498.683594 121.570312 500.914062 123.140625 503.101562 124.765625 C 505.289062 126.386719 507.4375 128.0625 509.542969 129.792969 C 511.648438 131.519531 513.710938 133.300781 515.730469 135.128906 C 517.75 136.957031 519.722656 138.835938 521.648438 140.765625 C 523.574219 142.691406 525.453125 144.664062 527.285156 146.683594 C 529.113281 148.699219 530.894531 150.765625 532.621094 152.871094 C 534.351562 154.976562 536.027344 157.125 537.648438 159.3125 C 539.273438 161.5 540.839844 163.726562 542.355469 165.992188 C 543.867188 168.257812 545.324219 170.558594 546.726562 172.898438 C 548.128906 175.234375 549.46875 177.605469 550.753906 180.007812 C 552.039062 182.410156 553.265625 184.84375 554.429688 187.308594 C 555.59375 189.769531 556.699219 192.261719 557.742188 194.777344 C 558.78125 197.296875 559.761719 199.835938 560.679688 202.402344 C 561.597656 204.96875 562.453125 207.554688 563.246094 210.160156 C 564.035156 212.769531 564.761719 215.394531 565.425781 218.039062 C 566.085938 220.679688 566.683594 223.339844 567.214844 226.011719 C 567.746094 228.683594 568.210938 231.367188 568.613281 234.0625 C 569.011719 236.757812 569.34375 239.460938 569.613281 242.171875 C 569.878906 244.882812 570.078125 247.601562 570.214844 250.320312 C 570.347656 253.042969 570.414062 255.765625 570.414062 258.492188 Z M 570.414062 258.492188 " fill-opacity="1" fill-rule="nonzero"/><path fill="#ffffff" d="M 180.167969 725.746094 L 627.675781 725.746094 C 629.300781 725.726562 630.921875 725.660156 632.539062 725.542969 C 634.160156 725.429688 635.773438 725.265625 637.382812 725.054688 C 638.992188 724.839844 640.59375 724.582031 642.1875 724.273438 C 643.78125 723.964844 645.367188 723.609375 646.9375 723.207031 C 648.511719 722.804688 650.070312 722.355469 651.617188 721.859375 C 653.160156 721.359375 654.691406 720.820312 656.203125 720.230469 C 657.71875 719.644531 659.210938 719.011719 660.6875 718.332031 C 662.164062 717.65625 663.617188 716.933594 665.046875 716.167969 C 666.480469 715.40625 667.886719 714.597656 669.269531 713.75 C 670.65625 712.898438 672.011719 712.011719 673.34375 711.082031 C 674.671875 710.148438 675.972656 709.179688 677.246094 708.171875 C 678.519531 707.164062 679.757812 706.117188 680.96875 705.035156 C 682.179688 703.953125 683.355469 702.835938 684.496094 701.683594 C 685.640625 700.527344 686.746094 699.34375 687.820312 698.121094 C 688.890625 696.902344 689.925781 695.652344 690.921875 694.371094 C 691.917969 693.089844 692.875 691.78125 693.792969 690.441406 C 694.710938 689.101562 695.589844 687.738281 696.425781 686.34375 C 697.261719 684.953125 698.054688 683.539062 698.804688 682.097656 C 699.558594 680.660156 700.265625 679.199219 700.929688 677.71875 C 701.59375 676.238281 702.210938 674.738281 702.785156 673.21875 C 703.359375 671.699219 703.886719 670.164062 704.371094 668.617188 C 704.851562 667.066406 705.289062 665.503906 705.675781 663.925781 C 706.066406 662.351562 706.40625 660.761719 706.699219 659.167969 C 706.992188 657.570312 707.238281 655.964844 707.433594 654.355469 C 707.632812 652.742188 707.78125 651.128906 707.882812 649.507812 C 707.980469 647.886719 708.035156 646.265625 708.035156 644.640625 C 708.039062 643.019531 707.996094 641.394531 707.902344 639.777344 C 707.804688 638.15625 707.664062 636.539062 707.472656 634.925781 C 707.28125 633.3125 707.042969 631.710938 706.757812 630.113281 C 706.46875 628.511719 706.132812 626.925781 705.753906 625.347656 C 705.371094 623.769531 704.941406 622.207031 704.464844 620.652344 C 703.988281 619.101562 703.46875 617.566406 702.898438 616.042969 C 701.746094 613.128906 700.539062 610.234375 699.277344 607.367188 C 698.015625 604.496094 696.703125 601.648438 695.335938 598.828125 C 693.96875 596.007812 692.546875 593.210938 691.078125 590.445312 C 689.605469 587.675781 688.082031 584.9375 686.507812 582.226562 C 684.929688 579.515625 683.304688 576.835938 681.632812 574.183594 C 679.957031 571.535156 678.234375 568.917969 676.460938 566.332031 C 674.6875 563.746094 672.867188 561.195312 670.996094 558.675781 C 669.128906 556.160156 667.214844 553.679688 665.25 551.234375 C 663.289062 548.789062 661.285156 546.378906 659.230469 544.007812 C 657.179688 541.640625 655.085938 539.308594 652.945312 537.015625 C 650.808594 534.722656 648.625 532.472656 646.402344 530.261719 C 644.179688 528.050781 641.914062 525.882812 639.609375 523.757812 C 637.304688 521.632812 634.964844 519.550781 632.582031 517.511719 C 630.199219 515.476562 627.777344 513.480469 625.320312 511.535156 C 622.863281 509.585938 620.371094 507.6875 617.84375 505.832031 C 615.316406 503.980469 612.753906 502.171875 610.160156 500.414062 C 607.5625 498.65625 604.933594 496.949219 602.273438 495.289062 C 599.617188 493.628906 596.925781 492.019531 594.207031 490.460938 C 591.484375 488.902344 588.738281 487.394531 585.960938 485.9375 C 583.183594 484.484375 580.382812 483.078125 577.554688 481.730469 C 574.722656 480.378906 571.871094 479.078125 568.992188 477.835938 C 566.117188 476.589844 563.214844 475.402344 560.292969 474.265625 C 557.371094 473.128906 554.429688 472.050781 551.464844 471.023438 C 548.503906 470 545.523438 469.027344 542.523438 468.117188 C 539.523438 467.203125 536.511719 466.34375 533.480469 465.542969 C 530.449219 464.742188 527.402344 463.996094 524.34375 463.3125 C 521.285156 462.625 518.214844 461.996094 515.132812 461.421875 C 512.050781 460.851562 508.957031 460.335938 505.855469 459.878906 C 502.753906 459.425781 499.644531 459.027344 496.527344 458.6875 C 493.414062 458.347656 490.289062 458.066406 487.164062 457.84375 C 484.035156 457.621094 480.90625 457.453125 477.773438 457.347656 C 474.640625 457.242188 471.503906 457.195312 468.371094 457.207031 L 339.472656 457.207031 C 336.339844 457.207031 333.207031 457.265625 330.078125 457.382812 C 326.949219 457.496094 323.820312 457.671875 320.695312 457.902344 C 317.570312 458.136719 314.453125 458.425781 311.339844 458.773438 C 308.226562 459.125 305.121094 459.53125 302.023438 459.992188 C 298.925781 460.457031 295.835938 460.980469 292.757812 461.558594 C 289.679688 462.136719 286.609375 462.773438 283.554688 463.464844 C 280.5 464.160156 277.460938 464.910156 274.433594 465.714844 C 271.40625 466.523438 268.394531 467.382812 265.398438 468.304688 C 262.402344 469.222656 259.425781 470.195312 256.46875 471.222656 C 253.507812 472.253906 250.570312 473.335938 247.652344 474.476562 C 244.734375 475.613281 241.835938 476.808594 238.964844 478.054688 C 236.089844 479.300781 233.238281 480.601562 230.414062 481.953125 C 227.585938 483.304688 224.789062 484.710938 222.015625 486.167969 C 219.242188 487.621094 216.496094 489.132812 213.777344 490.691406 C 211.0625 492.25 208.375 493.859375 205.714844 495.515625 C 203.058594 497.175781 200.433594 498.882812 197.839844 500.640625 C 195.246094 502.398438 192.683594 504.203125 190.15625 506.054688 C 187.632812 507.90625 185.140625 509.804688 182.683594 511.75 C 180.226562 513.691406 177.808594 515.683594 175.425781 517.71875 C 173.046875 519.753906 170.703125 521.832031 168.398438 523.953125 C 166.09375 526.074219 163.828125 528.238281 161.605469 530.445312 C 159.378906 532.652344 157.199219 534.898438 155.058594 537.1875 C 152.917969 539.472656 150.820312 541.800781 148.765625 544.164062 C 146.710938 546.53125 144.703125 548.933594 142.738281 551.375 C 140.773438 553.816406 138.855469 556.292969 136.984375 558.804688 C 135.113281 561.316406 133.285156 563.859375 131.507812 566.441406 C 129.730469 569.019531 128.003906 571.632812 126.324219 574.277344 C 124.640625 576.921875 123.011719 579.59375 121.429688 582.300781 C 119.851562 585.003906 118.320312 587.738281 116.84375 590.5 C 115.363281 593.261719 113.9375 596.050781 112.5625 598.863281 C 111.1875 601.679688 109.863281 604.519531 108.59375 607.382812 C 107.324219 610.246094 106.109375 613.132812 104.945312 616.042969 C 104.378906 617.5625 103.855469 619.097656 103.378906 620.652344 C 102.902344 622.203125 102.472656 623.769531 102.089844 625.347656 C 101.707031 626.921875 101.375 628.511719 101.085938 630.109375 C 100.796875 631.707031 100.558594 633.3125 100.367188 634.925781 C 100.175781 636.535156 100.035156 638.152344 99.941406 639.773438 C 99.84375 641.394531 99.800781 643.015625 99.800781 644.640625 C 99.804688 646.265625 99.855469 647.886719 99.957031 649.507812 C 100.058594 651.128906 100.207031 652.742188 100.402344 654.355469 C 100.601562 655.964844 100.84375 657.570312 101.136719 659.167969 C 101.429688 660.765625 101.773438 662.351562 102.160156 663.925781 C 102.546875 665.503906 102.984375 667.066406 103.464844 668.617188 C 103.949219 670.167969 104.476562 671.703125 105.050781 673.222656 C 105.625 674.738281 106.242188 676.238281 106.90625 677.722656 C 107.570312 679.203125 108.277344 680.664062 109.03125 682.101562 C 109.78125 683.542969 110.574219 684.957031 111.410156 686.347656 C 112.246094 687.738281 113.125 689.105469 114.042969 690.445312 C 114.960938 691.785156 115.917969 693.09375 116.914062 694.375 C 117.910156 695.65625 118.945312 696.90625 120.015625 698.128906 C 121.089844 699.347656 122.195312 700.535156 123.339844 701.6875 C 124.480469 702.839844 125.65625 703.957031 126.867188 705.039062 C 128.078125 706.125 129.320312 707.167969 130.589844 708.175781 C 131.863281 709.1875 133.164062 710.15625 134.496094 711.085938 C 135.824219 712.015625 137.183594 712.90625 138.566406 713.753906 C 139.949219 714.601562 141.359375 715.410156 142.792969 716.175781 C 144.222656 716.9375 145.675781 717.660156 147.152344 718.335938 C 148.628906 719.015625 150.121094 719.648438 151.636719 720.234375 C 153.148438 720.824219 154.679688 721.367188 156.226562 721.863281 C 157.769531 722.359375 159.328125 722.808594 160.902344 723.210938 C 162.476562 723.613281 164.058594 723.96875 165.652344 724.277344 C 167.246094 724.582031 168.847656 724.84375 170.457031 725.054688 C 172.066406 725.265625 173.683594 725.429688 175.300781 725.546875 C 176.921875 725.660156 178.542969 725.726562 180.167969 725.746094 Z M 180.167969 725.746094 " fill-opacity="1" fill-rule="nonzero"/></svg>