<svg xmlns="http://www.w3.org/2000/svg" xmlns:xlink="http://www.w3.org/1999/xlink" width="1080" zoomAndPan="magnify" viewBox="0 0 810 809.999993" height="1080" preserveAspectRatio="xMidYMid meet" version="1.0"><path fill="#ffffff" d="M 404.996094 219.203125 C 289.6875 219.203125 195.863281 313.023438 195.863281 428.332031 C 207.355469 705.773438 602.675781 705.695312 614.128906 428.332031 C 614.128906 313.023438 520.304688 219.203125 404.996094 219.203125 Z M 418.066406 428.332031 C 418.066406 431.796875 416.695312 435.128906 414.238281 437.574219 L 335.8125 516 C 323.710938 527.984375 305.265625 509.6875 317.332031 497.515625 C 317.332031 497.515625 391.925781 422.921875 391.925781 422.921875 L 391.925781 284.554688 C 391.925781 277.339844 397.78125 271.484375 404.996094 271.484375 C 412.210938 271.484375 418.066406 277.339844 418.066406 284.554688 Z M 418.066406 428.332031 " fill-opacity="1" fill-rule="nonzero"/><path fill="#ffffff" d="M 404.996094 140.777344 C 246.433594 140.777344 117.441406 269.773438 117.441406 428.332031 C 133.230469 809.816406 676.8125 809.710938 692.550781 428.332031 C 692.550781 269.773438 563.558594 140.777344 404.996094 140.777344 Z M 404.996094 663.605469 C 275.269531 663.605469 169.722656 558.0625 169.722656 428.332031 C 182.648438 116.21875 627.394531 116.296875 640.269531 428.332031 C 640.269531 558.0625 534.722656 663.605469 404.996094 663.605469 Z M 404.996094 663.605469 " fill-opacity="1" fill-rule="nonzero"/></svg>