<svg xmlns="http://www.w3.org/2000/svg" xmlns:xlink="http://www.w3.org/1999/xlink" width="1080" zoomAndPan="magnify" viewBox="0 0 810 809.999993" height="1080" preserveAspectRatio="xMidYMid meet" version="1.0"><defs><clipPath id="448318454d"><path d="M 124.210938 124.210938 L 685.960938 124.210938 L 685.960938 685.960938 L 124.210938 685.960938 Z M 124.210938 124.210938 " clip-rule="nonzero"/></clipPath></defs><g clip-path="url(#448318454d)"><path fill="#1f2a55" d="M 685.785156 404.996094 C 685.785156 409.589844 685.671875 414.183594 685.445312 418.773438 C 685.21875 423.363281 684.882812 427.945312 684.429688 432.519531 C 683.980469 437.089844 683.417969 441.652344 682.746094 446.195312 C 682.070312 450.742188 681.285156 455.269531 680.386719 459.773438 C 679.492188 464.28125 678.484375 468.765625 677.367188 473.222656 C 676.25 477.679688 675.027344 482.105469 673.691406 486.503906 C 672.359375 490.902344 670.917969 495.265625 669.371094 499.589844 C 667.820312 503.917969 666.167969 508.203125 664.410156 512.449219 C 662.652344 516.695312 660.789062 520.894531 658.824219 525.046875 C 656.859375 529.203125 654.792969 533.304688 652.628906 537.359375 C 650.460938 541.410156 648.199219 545.40625 645.835938 549.347656 C 643.472656 553.292969 641.015625 557.171875 638.460938 560.992188 C 635.910156 564.8125 633.265625 568.570312 630.527344 572.261719 C 627.789062 575.953125 624.960938 579.574219 622.046875 583.125 C 619.132812 586.679688 616.132812 590.15625 613.046875 593.5625 C 609.960938 596.964844 606.792969 600.292969 603.542969 603.542969 C 600.292969 606.792969 596.964844 609.960938 593.5625 613.046875 C 590.15625 616.132812 586.679688 619.132812 583.125 622.046875 C 579.574219 624.960938 575.953125 627.789062 572.261719 630.527344 C 568.570312 633.265625 564.8125 635.910156 560.992188 638.460938 C 557.171875 641.015625 553.292969 643.472656 549.347656 645.835938 C 545.40625 648.199219 541.410156 650.460938 537.359375 652.628906 C 533.304688 654.792969 529.203125 656.859375 525.046875 658.824219 C 520.894531 660.789062 516.695312 662.652344 512.449219 664.410156 C 508.203125 666.167969 503.917969 667.820312 499.589844 669.371094 C 495.265625 670.917969 490.902344 672.359375 486.503906 673.691406 C 482.105469 675.027344 477.679688 676.25 473.222656 677.367188 C 468.765625 678.484375 464.28125 679.492188 459.773438 680.386719 C 455.269531 681.285156 450.742188 682.070312 446.195312 682.746094 C 441.652344 683.417969 437.089844 683.980469 432.519531 684.429688 C 427.945312 684.882812 423.363281 685.21875 418.773438 685.445312 C 414.183594 685.671875 409.589844 685.785156 404.996094 685.785156 C 400.402344 685.785156 395.808594 685.671875 391.21875 685.445312 C 386.628906 685.21875 382.046875 684.882812 377.472656 684.429688 C 372.902344 683.980469 368.339844 683.417969 363.796875 682.746094 C 359.25 682.070312 354.722656 681.285156 350.21875 680.386719 C 345.710938 679.492188 341.226562 678.484375 336.769531 677.367188 C 332.3125 676.253906 327.886719 675.027344 323.488281 673.691406 C 319.089844 672.359375 314.730469 670.917969 310.402344 669.371094 C 306.074219 667.820312 301.789062 666.167969 297.542969 664.410156 C 293.296875 662.652344 289.097656 660.789062 284.945312 658.824219 C 280.789062 656.859375 276.6875 654.792969 272.632812 652.628906 C 268.582031 650.460938 264.585938 648.199219 260.644531 645.835938 C 256.703125 643.472656 252.820312 641.015625 249 638.460938 C 245.179688 635.910156 241.421875 633.265625 237.730469 630.527344 C 234.039062 627.789062 230.417969 624.960938 226.867188 622.046875 C 223.316406 619.132812 219.835938 616.132812 216.429688 613.046875 C 213.027344 609.960938 209.699219 606.792969 206.449219 603.542969 C 203.199219 600.292969 200.03125 596.964844 196.945312 593.5625 C 193.859375 590.15625 190.859375 586.679688 187.945312 583.125 C 185.03125 579.574219 182.203125 575.953125 179.464844 572.261719 C 176.730469 568.570312 174.082031 564.8125 171.53125 560.992188 C 168.976562 557.171875 166.519531 553.292969 164.15625 549.347656 C 161.792969 545.40625 159.53125 541.410156 157.363281 537.359375 C 155.199219 533.304688 153.132812 529.203125 151.167969 525.046875 C 149.203125 520.894531 147.339844 516.695312 145.582031 512.449219 C 143.824219 508.203125 142.171875 503.917969 140.621094 499.589844 C 139.074219 495.265625 137.632812 490.902344 136.300781 486.503906 C 134.964844 482.105469 133.742188 477.679688 132.625 473.222656 C 131.507812 468.765625 130.5 464.28125 129.605469 459.773438 C 128.707031 455.269531 127.921875 450.742188 127.25 446.195312 C 126.574219 441.652344 126.011719 437.089844 125.5625 432.519531 C 125.109375 427.945312 124.773438 423.363281 124.546875 418.773438 C 124.320312 414.183594 124.210938 409.589844 124.210938 404.996094 C 124.210938 400.402344 124.320312 395.808594 124.546875 391.21875 C 124.773438 386.628906 125.109375 382.046875 125.5625 377.472656 C 126.011719 372.902344 126.574219 368.339844 127.25 363.796875 C 127.921875 359.25 128.707031 354.722656 129.605469 350.21875 C 130.5 345.710938 131.507812 341.226562 132.625 336.769531 C 133.742188 332.3125 134.964844 327.886719 136.300781 323.488281 C 137.632812 319.089844 139.074219 314.730469 140.621094 310.402344 C 142.171875 306.074219 143.824219 301.789062 145.582031 297.542969 C 147.339844 293.296875 149.203125 289.097656 151.167969 284.945312 C 153.132812 280.789062 155.199219 276.6875 157.363281 272.632812 C 159.53125 268.582031 161.792969 264.585938 164.15625 260.644531 C 166.519531 256.703125 168.976562 252.820312 171.53125 249 C 174.082031 245.179688 176.730469 241.421875 179.464844 237.730469 C 182.203125 234.039062 185.03125 230.417969 187.945312 226.867188 C 190.859375 223.316406 193.859375 219.835938 196.945312 216.429688 C 200.03125 213.027344 203.199219 209.699219 206.449219 206.449219 C 209.699219 203.199219 213.027344 200.03125 216.429688 196.945312 C 219.835938 193.859375 223.316406 190.859375 226.867188 187.945312 C 230.417969 185.03125 234.039062 182.203125 237.730469 179.464844 C 241.421875 176.730469 245.179688 174.082031 249 171.53125 C 252.820312 168.976562 256.703125 166.519531 260.644531 164.15625 C 264.585938 161.792969 268.582031 159.53125 272.632812 157.363281 C 276.6875 155.199219 280.789062 153.132812 284.945312 151.167969 C 289.097656 149.203125 293.296875 147.339844 297.542969 145.582031 C 301.789062 143.824219 306.074219 142.171875 310.402344 140.621094 C 314.730469 139.074219 319.089844 137.632812 323.488281 136.300781 C 327.886719 134.964844 332.3125 133.742188 336.769531 132.625 C 341.226562 131.507812 345.710938 130.5 350.21875 129.605469 C 354.722656 128.707031 359.25 127.921875 363.796875 127.25 C 368.339844 126.574219 372.902344 126.011719 377.472656 125.5625 C 382.046875 125.109375 386.628906 124.773438 391.21875 124.546875 C 395.808594 124.320312 400.402344 124.210938 404.996094 124.210938 C 409.589844 124.210938 414.183594 124.320312 418.773438 124.546875 C 423.363281 124.773438 427.945312 125.109375 432.519531 125.5625 C 437.089844 126.011719 441.652344 126.574219 446.195312 127.25 C 450.742188 127.921875 455.269531 128.707031 459.773438 129.605469 C 464.28125 130.5 468.765625 131.507812 473.222656 132.625 C 477.679688 133.742188 482.105469 134.964844 486.503906 136.300781 C 490.902344 137.632812 495.265625 139.074219 499.589844 140.621094 C 503.917969 142.171875 508.203125 143.824219 512.449219 145.582031 C 516.695312 147.339844 520.894531 149.203125 525.046875 151.167969 C 529.203125 153.132812 533.304688 155.199219 537.359375 157.363281 C 541.410156 159.53125 545.40625 161.792969 549.347656 164.15625 C 553.292969 166.519531 557.171875 168.976562 560.992188 171.53125 C 564.8125 174.082031 568.570312 176.730469 572.261719 179.464844 C 575.953125 182.203125 579.574219 185.03125 583.125 187.945312 C 586.679688 190.859375 590.15625 193.859375 593.5625 196.945312 C 596.964844 200.03125 600.292969 203.199219 603.542969 206.449219 C 606.792969 209.699219 609.960938 213.027344 613.046875 216.429688 C 616.132812 219.835938 619.132812 223.316406 622.046875 226.867188 C 624.960938 230.417969 627.789062 234.039062 630.527344 237.730469 C 633.265625 241.421875 635.910156 245.179688 638.460938 249 C 641.015625 252.820312 643.472656 256.703125 645.835938 260.644531 C 648.199219 264.585938 650.460938 268.582031 652.628906 272.632812 C 654.792969 276.6875 656.859375 280.789062 658.824219 284.945312 C 660.789062 289.097656 662.652344 293.296875 664.410156 297.542969 C 666.167969 301.789062 667.820312 306.074219 669.371094 310.402344 C 670.917969 314.730469 672.359375 319.089844 673.691406 323.488281 C 675.027344 327.886719 676.25 332.3125 677.367188 336.769531 C 678.484375 341.226562 679.492188 345.710938 680.386719 350.21875 C 681.285156 354.722656 682.070312 359.25 682.746094 363.796875 C 683.417969 368.339844 683.980469 372.902344 684.429688 377.472656 C 684.882812 382.046875 685.21875 386.628906 685.445312 391.21875 C 685.671875 395.808594 685.785156 400.402344 685.785156 404.996094 Z M 685.785156 404.996094 " fill-opacity="1" fill-rule="nonzero"/></g><path fill="#ffffff" d="M 378.882812 513.378906 L 323.289062 513.378906 C 321.601562 513.378906 320.480469 512.257812 320.480469 510.570312 L 320.480469 306.160156 C 320.480469 304.472656 321.601562 303.351562 323.289062 303.351562 L 378.882812 303.351562 C 380.566406 303.351562 381.691406 304.472656 381.691406 306.160156 L 381.691406 510.570312 C 381.691406 511.976562 380.285156 513.378906 378.882812 513.378906 Z M 378.882812 513.378906 " fill-opacity="1" fill-rule="nonzero"/><path fill="#ffffff" d="M 479.40625 513.378906 L 423.808594 513.378906 C 422.125 513.378906 421 512.257812 421 510.570312 L 421 306.160156 C 421 304.472656 422.125 303.351562 423.808594 303.351562 L 479.40625 303.351562 C 481.089844 303.351562 482.210938 304.472656 482.210938 306.160156 L 482.210938 510.570312 C 482.210938 511.976562 480.808594 513.378906 479.40625 513.378906 Z M 479.40625 513.378906 " fill-opacity="1" fill-rule="nonzero"/></svg>